<?xml version="1.0" standalone="no"?>
<!DOCTYPE svg PUBLIC "-//W3C//DTD SVG 20010904//EN"
 "http://www.w3.org/TR/2001/REC-SVG-20010904/DTD/svg10.dtd">
<svg version="1.0" xmlns="http://www.w3.org/2000/svg"
 width="385.000000pt" height="385.000000pt" viewBox="0 0 385.000000 385.000000"
 preserveAspectRatio="xMidYMid meet">
<metadata>
Created by potrace 1.11, written by Peter Selinger 2001-2013
</metadata>
<g transform="translate(0.000000,385.000000) scale(0.100000,-0.100000)"
fill="#000000" stroke="none">
<path d="M1795 3624 c-149 -11 -355 -53 -460 -93 -177 -68 -241 -99 -347 -169
-169 -110 -283 -209 -392 -341 -197 -237 -312 -478 -378 -787 -19 -94 -23
-138 -23 -314 0 -173 4 -222 23 -316 81 -404 279 -736 593 -999 272 -227 602
-358 977 -386 137 -10 187 -8 337 12 366 50 701 214 956 469 124 123 166 174
242 291 185 284 277 595 277 932 -1 453 -168 864 -487 1193 -299 310 -708 490
-1148 507 -66 2 -142 3 -170 1z m-299 -91 c7 -10 14 -30 14 -45 0 -21 -6 -29
-26 -34 -39 -10 -52 11 -25 40 17 18 19 26 10 32 -14 8 -49 -29 -49 -52 0 -31
43 -104 106 -179 93 -112 117 -163 112 -238 l-4 -59 30 6 c127 22 234 27 334
17 59 -6 117 -14 130 -17 18 -5 24 -1 37 29 17 42 28 50 55 42 40 -13 10 -58
-31 -48 -11 3 -19 1 -19 -5 0 -6 14 -13 31 -17 25 -6 36 -2 53 14 23 23 25 69
15 291 -3 84 -1 100 19 141 27 55 67 79 115 70 27 -6 32 -12 35 -40 4 -41 -14
-63 -47 -59 -36 4 -39 33 -4 52 23 12 25 16 11 21 -27 11 -54 -11 -67 -55 -9
-30 -10 -81 -5 -180 8 -165 3 -199 -38 -246 -17 -20 -27 -39 -22 -43 5 -4 36
-18 69 -31 70 -28 162 -80 224 -127 24 -18 50 -33 57 -33 8 0 14 -4 14 -10 0
-17 54 -38 76 -30 34 13 80 77 115 159 77 179 159 254 241 220 35 -15 46 -51
24 -84 -19 -28 -57 -33 -76 -10 -26 31 30 61 59 33 10 -11 11 -9 5 5 -9 25
-50 40 -74 27 -31 -17 -67 -70 -111 -165 -53 -115 -90 -167 -142 -195 -23 -13
-44 -25 -46 -26 -2 -2 21 -34 51 -71 64 -78 110 -149 161 -246 29 -56 37 -66
44 -52 13 23 47 15 51 -13 4 -27 -22 -40 -43 -22 -12 10 -15 10 -15 -2 0 -43
64 -50 131 -14 24 12 79 48 121 78 120 87 212 110 263 66 39 -34 38 -76 -2
-100 -25 -15 -36 -17 -52 -8 -25 13 -27 42 -5 61 14 11 19 10 34 -9 24 -29 32
-28 18 3 -24 53 -98 39 -211 -41 -108 -76 -145 -95 -207 -107 -65 -13 -66 -14
-50 -82 21 -84 29 -229 19 -328 -5 -54 -7 -107 -4 -117 11 -34 67 -43 226 -36
167 8 217 0 261 -44 51 -52 30 -137 -30 -124 -48 10 -52 13 -52 37 0 34 25 54
45 37 8 -7 15 -22 15 -33 0 -15 3 -18 11 -10 17 17 1 52 -34 70 -25 13 -52 16
-127 13 -219 -8 -257 -4 -331 37 -3 2 -14 -25 -24 -59 -18 -64 -85 -213 -127
-280 -22 -35 -22 -37 -4 -56 21 -24 14 -58 -14 -67 -25 -8 -40 1 -40 23 0 12
-3 13 -11 5 -8 -8 -8 -17 3 -32 25 -35 69 -64 192 -126 137 -69 175 -106 183
-178 4 -36 1 -49 -16 -66 -11 -11 -31 -21 -43 -21 -51 0 -79 68 -37 91 30 16
56 -9 40 -39 -15 -29 -14 -37 4 -22 28 23 18 66 -24 102 -40 34 -49 39 -183
103 -79 38 -108 60 -143 109 l-20 28 -50 -49 c-63 -61 -161 -131 -245 -176
-63 -33 -65 -36 -62 -70 3 -31 0 -36 -27 -45 -16 -6 -32 -8 -35 -5 -14 14 -4
44 16 52 14 5 17 10 10 15 -20 12 -52 -13 -52 -41 0 -42 34 -101 112 -193 81
-97 107 -147 108 -208 0 -51 -21 -87 -58 -100 -36 -12 -49 -6 -67 29 -19 35
-3 69 33 69 30 0 39 -26 17 -50 -22 -24 -2 -28 21 -5 31 31 -5 110 -102 220
-70 81 -104 147 -104 203 l0 44 -32 -6 c-18 -4 -64 -13 -103 -21 -38 -7 -131
-13 -205 -13 -134 0 -135 0 -150 -26 -17 -30 -35 -39 -61 -31 -23 8 -25 43 -4
51 21 9 19 24 -4 24 -37 0 -54 -61 -56 -209 -2 -158 -16 -220 -57 -262 -36
-35 -65 -44 -101 -30 -32 12 -42 31 -33 66 12 46 86 59 86 15 0 -22 -28 -40
-50 -32 -12 3 -12 2 -3 -8 7 -7 22 -10 36 -6 39 9 55 69 61 229 4 123 7 145
30 190 24 48 24 53 9 65 -9 6 -22 12 -29 12 -28 0 -195 80 -265 126 -94 62
-87 60 -110 35 -22 -23 -49 -27 -67 -9 -30 30 12 66 53 46 16 -7 16 -5 -4 11
-13 12 -30 21 -39 21 -22 0 -104 -87 -126 -135 -86 -182 -201 -266 -280 -204
-42 33 -29 82 26 102 23 8 51 -15 46 -39 -2 -14 -12 -19 -35 -19 -24 0 -29 -3
-21 -12 37 -44 111 16 188 152 52 93 125 175 156 175 31 0 22 25 -32 88 -84
99 -178 256 -197 332 -12 47 -22 54 -56 42 -25 -9 -34 -8 -52 7 -14 12 -20 24
-16 35 10 26 36 30 60 10 l21 -19 -15 25 c-24 37 -64 37 -133 -1 -33 -17 -65
-36 -71 -43 -32 -32 -145 -96 -188 -107 -70 -17 -124 0 -143 46 -17 42 -11 60
26 75 44 18 65 10 68 -28 3 -28 0 -32 -22 -32 -14 0 -30 8 -35 17 -9 15 -10
15 -11 2 -1 -45 72 -52 144 -14 25 13 70 43 99 64 94 71 191 105 257 89 11 -2
13 5 10 32 -3 19 -5 117 -5 216 l0 181 -29 9 c-44 13 -56 39 -30 65 20 19 22
20 38 3 9 -9 15 -23 12 -30 -3 -8 -1 -14 5 -14 6 0 9 12 7 28 -2 19 -13 32
-38 45 -31 16 -52 18 -186 12 -172 -7 -222 1 -266 45 -30 31 -39 85 -16 108
19 19 25 14 23 -18 -4 -70 56 -90 232 -77 140 10 190 4 238 -29 20 -13 39 -24
43 -24 4 0 16 24 26 53 24 68 90 201 119 239 12 16 34 44 50 62 32 40 34 62 7
71 -42 13 -33 85 10 85 23 0 34 -28 19 -47 -13 -15 -6 -29 9 -19 19 11 19 45
2 74 -19 31 -103 85 -178 115 -69 28 -150 84 -172 119 -22 37 -27 110 -7 126
26 22 63 24 87 4 22 -17 23 -23 12 -46 -12 -27 -45 -35 -58 -15 -3 6 -1 22 7
35 15 29 2 47 -14 19 -17 -29 -16 -46 6 -79 24 -34 87 -76 162 -106 81 -33
105 -20 162 94 30 59 39 87 29 82 -9 -3 -23 -9 -31 -12 -10 -4 -15 0 -15 10 0
9 3 15 8 15 27 -4 44 2 38 16 -3 9 0 15 9 15 8 0 15 -5 15 -10 0 -24 41 30 43
56 2 23 -3 30 -20 32 -23 3 -28 -7 -25 -48 0 -8 -10 -20 -24 -27 -17 -8 -24
-8 -24 0 0 7 -4 7 -12 -1 -19 -19 -28 -14 -28 18 0 23 -4 30 -20 30 -25 0 -25
9 -2 26 16 13 16 13 -3 14 l-20 1 20 15 c14 11 16 18 8 21 -21 8 -15 23 10 23
18 0 19 2 7 10 -13 8 -11 11 8 16 12 4 22 12 22 19 0 24 26 37 47 25 15 -10
26 -8 56 9 62 35 107 24 107 -26 0 -14 6 -23 15 -23 16 0 55 -68 55 -95 0 -13
-6 -15 -27 -11 -22 4 -32 0 -45 -18 -17 -23 -17 -27 3 -78 25 -64 31 -77 70
-148 31 -58 34 -70 20 -70 -9 0 -107 117 -143 171 l-16 24 -37 -35 c-21 -19
-43 -48 -50 -65 -7 -16 -25 -41 -39 -54 -14 -14 -26 -30 -26 -38 0 -8 -12 -13
-29 -13 -29 0 -29 -1 30 -59 46 -47 59 -66 59 -90 0 -17 3 -31 6 -31 3 0 31
20 62 44 113 86 215 146 309 180 31 12 32 13 18 40 -8 16 -15 34 -15 42 0 18
39 44 56 37 21 -8 17 -40 -8 -57 -22 -16 -22 -16 -2 -16 12 0 29 9 39 20 17
19 17 22 1 64 -18 46 -40 78 -126 180 -103 124 -118 228 -39 272 33 18 49 17
65 -3z m451 -10 c3 -10 15 -30 25 -45 10 -14 18 -28 18 -30 0 -2 -26 -3 -57
-1 -110 7 -168 -53 -109 -112 14 -14 34 -25 44 -25 24 0 48 -25 33 -35 -7 -4
-7 -12 1 -25 7 -11 9 -23 4 -27 -15 -15 -94 -6 -131 15 -20 12 -42 22 -50 22
-20 0 -45 40 -45 73 0 20 14 46 41 78 39 47 57 56 141 74 15 3 35 16 45 30 21
29 31 31 40 8z m97 -132 c18 -12 35 -18 38 -15 10 9 48 -48 48 -71 0 -12 -16
-43 -36 -70 -37 -48 -83 -75 -128 -75 -14 0 -41 -14 -61 -31 l-35 -31 -9 25
c-5 14 -15 28 -20 32 -6 3 -11 12 -11 20 0 9 16 13 60 12 96 -1 145 49 102
103 -10 12 -34 28 -53 34 -24 8 -34 17 -34 31 0 11 -4 26 -9 34 -24 37 89 38
148 2z m569 -86 c28 -19 60 -35 71 -35 11 0 16 -3 13 -7 -4 -3 -2 -12 4 -20
16 -18 11 -17 -51 13 l-54 26 -18 -22 c-22 -27 -23 -40 -3 -40 8 0 15 -4 15
-10 0 -18 79 -50 130 -52 27 -1 50 -3 50 -4 0 -1 -9 -23 -20 -49 -11 -26 -20
-59 -21 -73 -1 -32 -29 -84 -49 -90 -12 -4 -11 -1 2 14 17 19 21 35 19 67 -2
29 -18 19 -25 -15 -7 -37 -32 -75 -43 -65 -3 4 1 15 9 24 37 43 26 86 -19 74
-24 -6 -29 -14 -37 -59 -8 -46 -12 -52 -34 -52 -21 0 -23 2 -12 15 17 21 7 88
-19 121 -23 29 -27 68 -10 110 10 27 9 27 -9 11 -17 -16 -20 -16 -32 -2 -11
13 -10 25 4 66 9 28 13 55 10 60 -6 10 30 27 59 28 10 1 41 -15 70 -34z
m-1573 -125 c0 -5 -4 -10 -10 -10 -5 0 -10 5 -10 10 0 6 5 10 10 10 6 0 10 -4
10 -10z m10 -44 c0 -11 -19 -15 -25 -6 -3 5 1 10 9 10 9 0 16 -2 16 -4z m10
-56 c0 -5 -4 -10 -10 -10 -5 0 -10 5 -10 10 0 6 5 10 10 10 6 0 10 -4 10 -10z
m-454 -181 c6 -5 33 -5 62 0 51 8 86 1 63 -13 -6 -4 -8 -18 -5 -31 4 -16 -1
-30 -14 -43 -31 -31 -18 -57 41 -86 55 -26 162 -42 173 -24 4 6 10 6 17 -1 7
-7 6 -16 -6 -29 -9 -10 -17 -26 -17 -36 0 -9 -9 -36 -19 -60 -11 -23 -18 -51
-15 -62 5 -23 -34 -103 -58 -118 -29 -18 -30 0 -3 39 28 43 31 62 10 89 -14
19 -15 17 -15 -20 0 -43 -28 -97 -58 -113 -30 -16 -34 -1 -7 31 41 48 46 129
6 113 -9 -4 -25 -8 -36 -9 -17 -1 -21 -10 -26 -61 -7 -81 -14 -92 -55 -97 -42
-5 -50 4 -30 34 28 40 15 131 -24 173 -23 24 -32 101 -17 143 7 18 5 22 -12
22 -31 0 -35 19 -11 45 l22 23 -28 4 c-24 2 -30 8 -32 33 -3 19 2 33 13 41 9
7 14 18 10 24 -8 14 52 4 71 -11z m2558 -96 c30 -27 70 -59 89 -73 26 -18 37
-35 41 -62 6 -38 -5 -81 -23 -93 -6 -3 -11 -14 -11 -23 0 -21 -75 -110 -85
-100 -4 4 7 24 24 44 19 21 31 44 29 57 -4 28 -28 34 -28 7 0 -25 -39 -80 -57
-80 -19 0 -16 8 14 34 24 21 26 26 15 50 -10 22 -18 26 -51 26 -67 0 -90 -49
-34 -71 13 -5 21 -14 18 -20 -5 -7 -15 -5 -32 6 -23 15 -26 15 -37 -1 -12 -15
-15 -14 -34 14 -26 36 -27 54 -6 88 9 13 14 27 11 31 -4 3 -12 -6 -18 -21 -16
-34 -35 -33 -51 2 -9 18 -22 28 -41 30 -15 2 -27 9 -27 18 0 8 -4 14 -9 14 -5
0 -11 7 -15 15 -4 12 0 14 18 9 16 -4 25 -1 29 10 4 9 13 16 22 16 8 0 20 12
25 26 6 14 15 22 20 19 6 -4 31 12 55 34 59 54 81 53 149 -6z m91 -14 c-5 -20
-3 -29 6 -29 7 0 10 -2 7 -5 -10 -10 -37 7 -43 26 -7 22 12 52 27 43 5 -3 6
-19 3 -35z m-555 16 c14 -17 5 -35 -18 -35 -27 0 -45 17 -39 34 8 20 41 21 57
1z m-2302 -424 c5 -31 -25 -56 -45 -40 -7 6 -13 25 -13 41 0 26 3 29 28 26 20
-2 28 -9 30 -27z m2863 -162 c13 -7 19 -19 17 -37 -3 -25 0 -27 37 -27 36 0
40 2 37 24 -3 28 14 51 38 51 10 0 40 -22 68 -49 74 -72 87 -103 56 -140 -10
-11 -24 -16 -35 -14 -16 5 -19 0 -19 -35 0 -23 5 -44 10 -47 13 -8 13 -25 0
-25 -15 0 -40 56 -40 90 0 30 -13 40 -25 19 -12 -19 17 -99 44 -120 24 -20 25
-21 8 -34 -17 -13 -17 -15 7 -64 46 -89 31 -96 -33 -16 -31 39 -51 55 -67 55
-14 0 -24 -6 -24 -14 0 -25 20 -69 37 -81 14 -10 14 -13 1 -17 -20 -8 -35 3
-47 35 -14 35 -27 34 -40 -3 -5 -16 -17 -30 -25 -30 -20 0 -20 -2 4 48 25 52
25 59 -2 68 -16 5 -27 0 -41 -17 -10 -13 -30 -37 -43 -53 -13 -17 -24 -33 -24
-38 0 -4 -4 -8 -10 -8 -16 0 -12 22 16 74 24 46 25 51 10 62 -16 11 -15 14 7
38 27 29 53 98 43 115 -11 18 -26 13 -26 -9 0 -31 -27 -90 -41 -90 -10 0 -10
3 -1 12 15 15 16 94 1 104 -6 3 -15 0 -20 -7 -7 -11 -11 -10 -23 6 -19 25 -20
39 -2 74 16 31 100 111 116 111 6 0 20 -5 31 -11z m-2582 -104 c26 -46 31 -65
31 -122 0 -41 -7 -87 -18 -116 l-18 -47 -21 26 c-12 14 -26 23 -32 20 -20 -13
-11 -35 19 -51 39 -20 37 -34 -7 -67 -37 -28 -81 -39 -67 -16 5 8 2 9 -12 4
-22 -9 -22 -9 -52 -7 -28 1 -24 26 4 27 72 4 70 8 -30 49 l-69 29 -19 -24
c-15 -19 -18 -33 -14 -62 7 -40 -3 -48 -24 -23 -8 10 -11 32 -7 62 l5 48 -20
-25 c-15 -19 -18 -33 -14 -63 6 -33 4 -38 -11 -35 -24 5 -22 84 5 141 31 66
36 88 19 81 -8 -3 -20 -16 -27 -30 -12 -21 -48 -32 -41 -12 34 99 62 128 90
94 7 -8 33 -16 59 -19 26 -3 60 -8 76 -12 22 -6 28 -5 24 6 -2 8 -18 15 -35
17 -43 4 -48 26 -13 55 27 23 28 27 18 55 -16 40 3 64 46 60 25 -2 33 -9 42
-36 l10 -32 35 40 c18 22 35 40 36 40 0 0 15 -25 32 -55z m2389 -378 c4 -33
-22 -47 -45 -25 -12 13 -13 20 -3 37 15 30 44 23 48 -12z m-2512 -337 c-6 -56
-6 -59 24 -84 33 -27 28 -33 -14 -16 -35 13 -76 81 -76 125 0 31 3 35 19 30
11 -3 22 -1 26 5 16 26 27 -6 21 -60z m2782 17 c18 -17 21 -27 16 -56 -4 -20
-11 -39 -17 -42 -5 -4 -5 -9 2 -14 7 -4 17 -2 24 3 7 5 28 12 47 15 32 6 34 6
16 -8 -11 -8 -25 -15 -30 -16 -35 -2 -100 -27 -74 -28 34 -2 82 -81 48 -81 -5
0 -10 8 -10 19 0 22 -40 51 -70 51 -24 0 -25 -6 -5 -26 8 -9 15 -31 15 -50 0
-24 -5 -34 -15 -34 -10 0 -15 10 -15 29 0 46 -23 61 -91 61 -54 0 -64 3 -90
29 -16 16 -29 37 -29 46 0 15 -2 15 -16 4 -15 -12 -14 -15 10 -34 32 -25 25
-36 -15 -25 -16 5 -29 6 -29 2 -1 -4 -14 -23 -30 -42 -22 -25 -30 -30 -30 -17
0 10 11 29 24 42 28 28 20 39 -35 49 -21 4 -43 14 -50 23 -12 14 -12 15 6 6
29 -15 95 -23 95 -12 0 8 -13 13 -31 11 -3 -1 -19 12 -34 28 -35 37 -28 38 21
5 41 -28 64 -33 40 -9 -20 20 -20 34 2 59 14 18 89 55 109 55 11 0 -32 -43
-62 -61 l-30 -19 33 -12 c17 -7 32 -16 32 -21 0 -4 15 3 33 16 49 37 62 38
111 12 26 -14 46 -21 46 -16 0 5 15 14 33 21 l32 12 -25 9 c-31 13 -71 49 -64
60 6 11 74 -18 102 -44z m-2518 31 c0 -9 3 -9 12 0 37 37 38 -32 2 -94 -26
-45 -50 -64 -79 -64 -10 0 -5 9 16 28 30 27 31 30 20 65 -7 20 -10 46 -6 57 7
21 35 28 35 8z m2600 -72 c0 -18 -47 -49 -55 -36 -3 6 5 14 19 20 14 5 26 14
26 20 0 5 2 10 5 10 3 0 5 -6 5 -14z m-2720 -50 c0 -7 6 -24 13 -39 10 -22 19
-27 50 -27 33 0 37 -3 37 -25 0 -22 -5 -25 -32 -25 -23 0 -29 -3 -19 -9 7 -5
22 -6 32 -4 10 3 19 1 19 -5 0 -6 -15 -13 -32 -15 -32 -4 -32 -4 5 -5 23 -1
36 -6 32 -12 -8 -12 -61 -13 -83 -1 -15 8 -17 2 -20 -42 -2 -41 1 -54 17 -67
10 -8 22 -29 26 -47 6 -29 3 -34 -27 -53 -42 -26 -57 -25 -99 3 -34 23 -45 57
-21 65 7 2 12 -5 12 -17 0 -37 85 -56 111 -25 11 14 8 21 -25 51 -43 39 -70
95 -61 124 7 20 -9 27 -20 9 -9 -14 -67 -12 -88 4 -15 12 -13 13 25 11 24 -1
32 0 18 2 -42 8 -48 23 -9 24 26 1 28 3 10 6 -33 6 -71 32 -71 48 0 9 11 12
39 8 60 -8 85 2 100 40 10 26 20 35 37 35 13 0 24 -6 24 -12z m2393 -82 c3 -4
-3 -14 -14 -23 -11 -9 -21 -29 -22 -45 -4 -47 -27 -45 -27 3 0 30 6 44 22 55
25 18 32 19 41 10z m-493 -264 c0 -5 11 -10 24 -10 30 0 74 -34 78 -62 4 -28
28 -36 28 -9 0 12 2 21 4 21 2 0 12 3 22 7 13 5 16 3 11 -10 -4 -11 1 -20 14
-28 17 -9 20 -17 15 -41 -4 -20 -1 -35 9 -45 24 -24 19 -78 -10 -101 -25 -20
-33 -42 -15 -42 6 0 10 -5 10 -12 0 -18 42 -58 61 -58 16 0 36 -17 28 -24 -2
-2 -16 -6 -31 -10 -22 -5 -34 0 -63 29 -19 20 -35 42 -35 50 0 19 -11 19 -36
0 -25 -19 -34 -19 -34 1 0 13 -2 13 -17 -2 -17 -17 -18 -17 -21 4 -4 25 -10
27 -34 9 -11 -9 -18 -31 -20 -63 -3 -43 -6 -49 -23 -46 -11 2 -21 5 -21 5 -1
1 1 44 5 95 5 72 3 95 -7 106 -15 15 -7 40 9 31 5 -4 9 1 9 9 0 9 -9 16 -20
16 -23 0 -36 -37 -26 -75 5 -20 3 -25 -13 -25 -29 0 -33 13 -21 67 13 57 44
125 76 170 13 17 24 36 24 42 0 6 5 11 10 11 6 0 10 -4 10 -10z m298 -48 c3
-26 -1 -34 -22 -44 -22 -9 -29 -8 -46 7 -20 18 -20 18 2 33 13 9 27 22 31 29
14 22 32 9 35 -25z m-1548 -75 c17 -12 34 -15 57 -11 36 7 39 3 23 -27 -11
-20 -7 -36 45 -173 23 -60 25 -73 14 -94 -15 -27 -58 -52 -88 -52 -30 0 -86
29 -100 52 -12 19 0 61 50 183 23 56 21 61 -22 75 -36 12 -45 12 -68 -1 -24
-14 -30 -14 -49 -1 -27 18 -88 5 -86 -19 1 -8 19 -62 40 -122 l38 -107 -30
-30 c-24 -24 -39 -31 -78 -32 -43 -2 -51 1 -76 29 l-28 31 34 94 c47 130 49
141 24 163 -21 19 -27 45 -11 45 6 0 13 -4 16 -10 10 -16 41 -12 75 9 42 25
183 24 220 -2z m694 -79 c8 -13 18 -42 22 -65 5 -34 3 -44 -10 -49 -23 -9 -20
-34 9 -76 25 -37 32 -58 18 -58 -5 1 -21 19 -36 41 -16 23 -30 39 -31 38 -2
-2 3 -44 10 -94 12 -81 17 -159 15 -222 -2 -34 -41 -32 -41 2 0 22 -4 25 -38
25 -33 0 -39 -4 -49 -30 -13 -36 -49 -43 -40 -8 3 12 2 29 -3 38 -9 17 14 201
30 230 5 10 13 43 16 74 6 48 4 56 -9 56 -20 0 -47 -49 -47 -85 0 -16 -6 -25
-15 -25 -18 0 -19 21 -5 72 12 43 73 98 107 98 13 0 23 5 23 12 0 16 30 48 46
48 8 0 20 -10 28 -22z"/>
<path d="M1095 3350 c-3 -5 -1 -10 4 -10 6 0 11 5 11 10 0 6 -2 10 -4 10 -3 0
-8 -4 -11 -10z"/>
<path d="M1108 3275 c2 -19 7 -35 11 -35 4 0 5 16 3 35 -2 19 -7 35 -11 35 -4
0 -5 -16 -3 -35z"/>
<path d="M1865 2773 c-16 -1 -58 -6 -93 -9 -62 -6 -63 -6 -58 -32 3 -15 8 -57
11 -94 l7 -68 48 0 c65 0 101 -30 103 -84 1 -52 -28 -76 -95 -76 -46 0 -49 -2
-46 -22 7 -54 169 -22 196 38 15 33 15 93 -1 123 -18 35 -56 59 -106 65 -24 3
-46 8 -48 10 -2 2 -5 23 -6 47 l-2 44 73 9 c65 8 73 11 70 29 -3 23 -10 25
-53 20z"/>
<path d="M2295 2594 c-81 -41 -155 -150 -155 -226 0 -167 252 -166 268 1 4 47
2 53 -31 86 -22 22 -45 35 -60 35 -14 0 -28 4 -32 9 -9 15 67 71 96 71 27 0
76 -38 95 -73 13 -22 44 -13 44 13 0 10 -21 37 -46 59 -42 37 -52 41 -98 41
-28 0 -64 -7 -81 -16z m33 -154 c32 -30 29 -80 -7 -119 -70 -75 -155 4 -106
99 23 45 76 54 113 20z"/>
<path d="M1272 2500 c-10 -17 -6 -45 25 -171 24 -99 42 -153 52 -157 10 -4 35
17 72 59 l58 64 35 -34 c36 -35 61 -37 73 -5 4 12 -5 27 -31 49 -35 29 -37 34
-26 55 10 18 9 25 -5 39 -15 15 -17 15 -29 -1 -7 -10 -16 -18 -20 -18 -4 0
-46 32 -93 70 -48 39 -89 70 -92 70 -4 0 -12 -9 -19 -20z m122 -134 c39 -33
39 -35 23 -58 -36 -51 -47 -62 -56 -52 -8 9 -41 132 -41 154 0 14 23 0 74 -44z"/>
<path d="M1793 2213 c-59 -20 -141 -97 -169 -158 -35 -74 -34 -193 2 -261 35
-67 79 -110 144 -142 72 -35 180 -37 251 -5 206 93 247 355 80 506 -82 73
-204 97 -308 60z"/>
<path d="M2707 2132 c-16 -3 -18 -12 -11 -85 3 -45 7 -86 8 -92 2 -17 -31 -6
-128 40 -92 45 -176 75 -209 75 -15 0 -18 -7 -15 -32 3 -29 7 -32 58 -44 65
-15 172 -55 240 -89 27 -14 66 -25 85 -25 34 0 36 2 31 28 -3 15 -10 70 -17
122 -6 52 -14 98 -18 101 -3 3 -14 4 -24 1z"/>
<path d="M1254 1944 l-34 -35 -26 20 c-34 26 -94 28 -124 3 -44 -35 -36 -202
9 -202 27 0 30 9 15 45 -19 46 -18 79 4 98 43 39 105 9 118 -58 3 -19 11 -38
16 -41 11 -7 29 16 22 28 -8 12 15 85 30 97 31 26 66 23 97 -9 29 -28 30 -33
23 -86 -6 -55 -6 -56 17 -52 29 4 38 47 27 123 -10 69 -50 105 -114 105 -40 0
-51 -5 -80 -36z"/>
<path d="M2322 1699 c-51 -15 -92 -79 -92 -145 0 -90 47 -123 150 -104 23 5
25 1 31 -39 14 -104 128 -110 180 -10 27 54 24 91 -10 128 -23 25 -37 31 -70
31 -41 0 -43 2 -41 45 0 3 -6 18 -14 33 -30 58 -75 78 -134 61z m83 -84 c34
-33 33 -72 -2 -86 -56 -21 -92 -23 -113 -4 -27 24 -25 57 5 89 32 34 77 35
110 1z m149 -134 c22 -24 14 -53 -21 -81 -33 -26 -39 -25 -68 5 -34 33 -33 70
3 83 42 16 67 14 86 -7z"/>
<path d="M1503 1625 c-14 -16 -17 -35 -5 -35 4 -1 31 -23 61 -50 l54 -50 -36
-15 c-22 -9 -67 -15 -112 -15 -82 0 -123 -14 -149 -52 -19 -27 -20 -84 -2
-117 17 -30 93 -81 121 -81 40 0 36 26 -7 45 -44 19 -78 66 -71 96 3 11 19 30
35 44 25 21 40 25 97 25 91 0 176 18 198 42 17 19 16 21 -32 66 -71 67 -125
112 -133 112 -4 -1 -13 -7 -19 -15z"/>
<path d="M1910 1433 c0 -77 22 -359 28 -365 4 -4 31 -5 60 -1 40 4 52 10 50
21 -2 8 -14 17 -27 19 -14 2 -27 5 -29 8 -4 3 -19 237 -21 323 -1 18 -7 22
-31 22 -26 0 -30 -4 -30 -27z"/>
<path d="M3010 2575 c-16 -20 -9 -49 14 -53 15 -3 17 0 11 14 -4 11 -7 27 -7
37 1 21 -2 21 -18 2z"/>
<path d="M3277 2088 c5 -42 23 -78 38 -78 14 0 41 57 32 67 -4 3 -2 14 4 24 9
17 6 19 -34 19 -43 0 -44 0 -40 -32z"/>
<path d="M606 2101 c-24 -26 -26 -31 -14 -50 13 -22 71 -30 83 -11 5 8 -30 90
-38 90 -2 0 -16 -13 -31 -29z"/>
<path d="M637 1993 c-14 -4 -16 -12 -11 -46 8 -51 21 -77 37 -77 7 0 14 12 15
28 2 15 3 34 4 42 5 56 -2 64 -45 53z"/>
<path d="M597 1780 c-6 -23 3 -26 21 -8 16 16 15 28 -2 28 -7 0 -16 -9 -19
-20z"/>
<path d="M3270 1324 c8 -10 15 -20 16 -22 1 -2 5 1 8 7 4 5 -4 15 -16 22 -22
12 -22 11 -8 -7z"/>
<path d="M620 1190 c0 -5 5 -10 10 -10 6 0 10 5 10 10 0 6 -4 10 -10 10 -5 0
-10 -4 -10 -10z"/>
<path d="M1365 707 c-16 -51 -31 -98 -33 -104 -3 -10 14 -13 62 -13 46 0 66 4
66 13 0 14 -48 165 -58 183 -4 7 -20 -26 -37 -79z"/>
<path d="M1086 758 c-9 -21 -16 -44 -16 -52 0 -8 -4 -17 -9 -20 -5 -3 -12 -22
-15 -42 -4 -19 -10 -42 -13 -50 -4 -11 8 -14 61 -14 36 0 66 3 66 8 0 7 -14
57 -44 162 l-14 45 -16 -37z"/>
<path d="M1210 3530 c-9 -6 -10 -10 -3 -10 6 0 15 5 18 10 8 12 4 12 -15 0z"/>
<path d="M885 3350 c-3 -5 -1 -10 4 -10 6 0 11 5 11 10 0 6 -2 10 -4 10 -3 0
-8 -4 -11 -10z"/>
</g>
</svg>
